<svg width="417" height="80" viewBox="0 0 417 80" fill="none" xmlns="http://www.w3.org/2000/svg">
<mask id="path-1-outside-1_28_0" maskUnits="userSpaceOnUse" x="0" y="0" width="417" height="80" fill="black">
<rect fill="white" width="417" height="80"/>
<path d="M32.6 7C38.8 7 44.1667 8.03333 48.7 10.1C53.3 12.1667 56.8333 15.1 59.3 18.9C61.7667 22.7 63 27.2 63 32.4C63 37.5333 61.7667 42.0333 59.3 45.9C56.8333 49.7 53.3 52.6333 48.7 54.7C44.1667 56.7 38.8 57.7 32.6 57.7H18.5V77H2.3V7H32.6ZM31.7 44.5C36.5667 44.5 40.2667 43.4667 42.8 41.4C45.3333 39.2667 46.6 36.2667 46.6 32.4C46.6 28.4667 45.3333 25.4667 42.8 23.4C40.2667 21.2667 36.5667 20.2 31.7 20.2H18.5V44.5H31.7ZM88.3656 30.3C90.2323 27.7 92.7323 25.7333 95.8656 24.4C99.0656 23.0667 102.732 22.4 106.866 22.4V36.8C105.132 36.6667 103.966 36.6 103.366 36.6C98.899 36.6 95.399 37.8667 92.8656 40.4C90.3323 42.8667 89.0656 46.6 89.0656 51.6V77H73.4656V23.2H88.3656V30.3ZM141.253 77.8C135.586 77.8 130.486 76.6333 125.953 74.3C121.486 71.9 117.986 68.6 115.453 64.4C112.92 60.2 111.653 55.4333 111.653 50.1C111.653 44.7667 112.92 40 115.453 35.8C117.986 31.6 121.486 28.3333 125.953 26C130.486 23.6 135.586 22.4 141.253 22.4C146.92 22.4 151.986 23.6 156.453 26C160.92 28.3333 164.42 31.6 166.953 35.8C169.486 40 170.753 44.7667 170.753 50.1C170.753 55.4333 169.486 60.2 166.953 64.4C164.42 68.6 160.92 71.9 156.453 74.3C151.986 76.6333 146.92 77.8 141.253 77.8ZM141.253 65C145.253 65 148.52 63.6667 151.053 61C153.653 58.2667 154.953 54.6333 154.953 50.1C154.953 45.5667 153.653 41.9667 151.053 39.3C148.52 36.5667 145.253 35.2 141.253 35.2C137.253 35.2 133.953 36.5667 131.353 39.3C128.753 41.9667 127.453 45.5667 127.453 50.1C127.453 54.6333 128.753 58.2667 131.353 61C133.953 63.6667 137.253 65 141.253 65ZM235.98 2.8V77H221.08V70.8C217.214 75.4667 211.614 77.8 204.28 77.8C199.214 77.8 194.614 76.6667 190.48 74.4C186.414 72.1333 183.214 68.9 180.88 64.7C178.547 60.5 177.38 55.6333 177.38 50.1C177.38 44.5667 178.547 39.7 180.88 35.5C183.214 31.3 186.414 28.0667 190.48 25.8C194.614 23.5333 199.214 22.4 204.28 22.4C211.147 22.4 216.514 24.5667 220.38 28.9V2.8H235.98ZM206.98 65C210.914 65 214.18 63.6667 216.78 61C219.38 58.2667 220.68 54.6333 220.68 50.1C220.68 45.5667 219.38 41.9667 216.78 39.3C214.18 36.5667 210.914 35.2 206.98 35.2C202.98 35.2 199.68 36.5667 197.08 39.3C194.48 41.9667 193.18 45.5667 193.18 50.1C193.18 54.6333 194.48 58.2667 197.08 61C199.68 63.6667 202.98 65 206.98 65ZM304.619 23.2V77H289.819V70.6C287.752 72.9333 285.285 74.7333 282.419 76C279.552 77.2 276.452 77.8 273.119 77.8C266.052 77.8 260.452 75.7667 256.319 71.7C252.185 67.6333 250.119 61.6 250.119 53.6V23.2H265.719V51.3C265.719 59.9667 269.352 64.3 276.619 64.3C280.352 64.3 283.352 63.1 285.619 60.7C287.885 58.2333 289.019 54.6 289.019 49.8V23.2H304.619ZM345.071 77.8C339.338 77.8 334.171 76.6333 329.571 74.3C325.038 71.9 321.471 68.6 318.871 64.4C316.338 60.2 315.071 55.4333 315.071 50.1C315.071 44.7667 316.338 40 318.871 35.8C321.471 31.6 325.038 28.3333 329.571 26C334.171 23.6 339.338 22.4 345.071 22.4C350.738 22.4 355.671 23.6 359.871 26C364.138 28.3333 367.238 31.7 369.171 36.1L357.071 42.6C354.271 37.6667 350.238 35.2 344.971 35.2C340.904 35.2 337.538 36.5333 334.871 39.2C332.204 41.8667 330.871 45.5 330.871 50.1C330.871 54.7 332.204 58.3333 334.871 61C337.538 63.6667 340.904 65 344.971 65C350.304 65 354.338 62.5333 357.071 57.6L369.171 64.2C367.238 68.4667 364.138 71.8 359.871 74.2C355.671 76.6 350.738 77.8 345.071 77.8ZM413.634 74.4C412.101 75.5333 410.201 76.4 407.934 77C405.734 77.5333 403.401 77.8 400.934 77.8C394.534 77.8 389.568 76.1667 386.034 72.9C382.568 69.6333 380.834 64.8333 380.834 58.5V36.4H372.534V24.4H380.834V11.3H396.434V24.4H409.834V36.4H396.434V58.3C396.434 60.5667 397.001 62.3333 398.134 63.6C399.334 64.8 401.001 65.4 403.134 65.4C405.601 65.4 407.701 64.7333 409.434 63.4L413.634 74.4Z"/>
</mask>
<path d="M48.7 10.1L47.8704 11.9198L47.8804 11.9243L48.7 10.1ZM59.3 45.9L60.9776 46.9889L60.9819 46.9823L60.9861 46.9756L59.3 45.9ZM48.7 54.7L49.5073 56.5299L49.5196 56.5243L48.7 54.7ZM18.5 57.7V55.7H16.5V57.7H18.5ZM18.5 77V79H20.5V77H18.5ZM2.3 77H0.3V79H2.3V77ZM2.3 7V5H0.3V7H2.3ZM42.8 41.4L44.0643 42.9497L44.0763 42.9399L44.0883 42.9298L42.8 41.4ZM42.8 23.4L41.5117 24.9298L41.5237 24.9399L41.5357 24.9497L42.8 23.4ZM18.5 20.2V18.2H16.5V20.2H18.5ZM18.5 44.5H16.5V46.5H18.5V44.5ZM32.6 9C38.5818 9 43.653 9.99719 47.8704 11.9198L49.5296 8.28018C44.6803 6.06947 39.0182 5 32.6 5V9ZM47.8804 11.9243C52.1707 13.8519 55.3883 16.5472 57.6224 19.9889L60.9776 17.8111C58.2783 13.6528 54.4293 10.4815 49.5196 8.27566L47.8804 11.9243ZM57.6224 19.9889C59.8489 23.4188 61 27.5279 61 32.4H65C65 26.8721 63.6845 21.9811 60.9776 17.8111L57.6224 19.9889ZM61 32.4C61 37.1991 59.8517 41.3164 57.6139 44.8244L60.9861 46.9756C63.6816 42.7503 65 37.8676 65 32.4H61ZM57.6224 44.8111C55.3883 48.2528 52.1707 50.9481 47.8804 52.8757L49.5196 56.5243C54.4293 54.3185 58.2783 51.1472 60.9776 46.9889L57.6224 44.8111ZM47.8927 52.8702C43.6691 54.7335 38.5897 55.7 32.6 55.7V59.7C39.0103 59.7 44.6642 58.6665 49.5073 56.5298L47.8927 52.8702ZM32.6 55.7H18.5V59.7H32.6V55.7ZM16.5 57.7V77H20.5V57.7H16.5ZM18.5 75H2.3V79H18.5V75ZM4.3 77V7H0.3V77H4.3ZM2.3 9H32.6V5H2.3V9ZM31.7 46.5C36.8106 46.5 41.0359 45.4202 44.0643 42.9497L41.5358 39.8503C39.4974 41.5131 36.3228 42.5 31.7 42.5V46.5ZM44.0883 42.9298C47.1506 40.351 48.6 36.7469 48.6 32.4H44.6C44.6 35.7865 43.5161 38.1823 41.5117 39.8702L44.0883 42.9298ZM48.6 32.4C48.6 28.0008 47.1586 24.3746 44.0643 21.8503L41.5357 24.9497C43.5081 26.5587 44.6 28.9325 44.6 32.4H48.6ZM44.0883 21.8702C41.0583 19.3186 36.823 18.2 31.7 18.2V22.2C36.3104 22.2 39.475 23.2147 41.5117 24.9298L44.0883 21.8702ZM31.7 18.2H18.5V22.2H31.7V18.2ZM16.5 20.2V44.5H20.5V20.2H16.5ZM18.5 46.5H31.7V42.5H18.5V46.5ZM88.3656 30.3H86.3656V36.515L89.9903 31.4664L88.3656 30.3ZM95.8656 24.4L95.0964 22.5538L95.0894 22.5567L95.0825 22.5597L95.8656 24.4ZM106.866 22.4H108.866V20.4H106.866V22.4ZM106.866 36.8L106.712 38.7941L108.866 38.9598V36.8H106.866ZM92.8656 40.4L94.2609 41.8329L94.2704 41.8236L94.2798 41.8142L92.8656 40.4ZM89.0656 77V79H91.0656V77H89.0656ZM73.4656 77H71.4656V79H73.4656V77ZM73.4656 23.2V21.2H71.4656V23.2H73.4656ZM88.3656 23.2H90.3656V21.2H88.3656V23.2ZM89.9903 31.4664C91.6296 29.183 93.8299 27.4398 96.6487 26.2403L95.0825 22.5597C91.6347 24.0268 88.835 26.217 86.741 29.1336L89.9903 31.4664ZM96.6349 26.2462C99.549 25.0319 102.947 24.4 106.866 24.4V20.4C102.518 20.4 98.5822 21.1014 95.0964 22.5538L96.6349 26.2462ZM104.866 22.4V36.8H108.866V22.4H104.866ZM107.019 34.8059C105.296 34.6734 104.055 34.6 103.366 34.6V38.6C103.877 38.6 104.968 38.6599 106.712 38.7941L107.019 34.8059ZM103.366 34.6C98.5069 34.6 94.4475 35.9897 91.4514 38.9858L94.2798 41.8142C96.3504 39.7436 99.291 38.6 103.366 38.6V34.6ZM91.4704 38.9671C88.4135 41.9435 87.0656 46.2872 87.0656 51.6H91.0656C91.0656 46.9128 92.2511 43.7898 94.2609 41.8329L91.4704 38.9671ZM87.0656 51.6V77H91.0656V51.6H87.0656ZM89.0656 75H73.4656V79H89.0656V75ZM75.4656 77V23.2H71.4656V77H75.4656ZM73.4656 25.2H88.3656V21.2H73.4656V25.2ZM86.3656 23.2V30.3H90.3656V23.2H86.3656ZM125.953 74.3L125.007 76.0618L125.022 76.0702L125.038 76.0783L125.953 74.3ZM115.453 64.4L113.741 65.433L115.453 64.4ZM115.453 35.8L113.741 34.767L115.453 35.8ZM125.953 26L126.879 27.7727L126.889 27.7676L125.953 26ZM156.453 26L155.507 27.7618L155.517 27.7673L155.527 27.7727L156.453 26ZM166.953 35.8L168.666 34.767L166.953 35.8ZM166.953 64.4L168.666 65.433L166.953 64.4ZM156.453 74.3L157.379 76.0727L157.389 76.0673L157.4 76.0618L156.453 74.3ZM151.053 61L149.604 59.6216L149.603 59.6225L151.053 61ZM151.053 39.3L149.586 40.6595L149.603 40.6781L149.621 40.6962L151.053 39.3ZM131.353 39.3L132.785 40.6962L132.794 40.6874L132.802 40.6784L131.353 39.3ZM131.353 61L129.904 62.3784L129.913 62.3874L129.921 62.3962L131.353 61ZM141.253 75.8C135.869 75.8 131.088 74.6937 126.868 72.5217L125.038 76.0783C129.885 78.5729 135.304 79.8 141.253 79.8V75.8ZM126.9 72.5382C122.738 70.302 119.507 67.2491 117.166 63.367L113.741 65.433C116.466 69.9509 120.235 73.498 125.007 76.0618L126.9 72.5382ZM117.166 63.367C114.837 59.5058 113.653 55.1022 113.653 50.1H109.653C109.653 55.7645 111.003 60.8942 113.741 65.433L117.166 63.367ZM113.653 50.1C113.653 45.0978 114.837 40.6942 117.166 36.833L113.741 34.767C111.003 39.3058 109.653 44.4355 109.653 50.1H113.653ZM117.166 36.833C119.504 32.9559 122.728 29.9411 126.879 27.7727L125.027 24.2273C120.245 26.7255 116.469 30.2441 113.741 34.767L117.166 36.833ZM126.889 27.7676C131.105 25.5357 135.878 24.4 141.253 24.4V20.4C135.295 20.4 129.868 21.6643 125.017 24.2324L126.889 27.7676ZM141.253 24.4C146.629 24.4 151.364 25.5358 155.507 27.7618L157.4 24.2382C152.609 21.6642 147.211 20.4 141.253 20.4V24.4ZM155.527 27.7727C159.678 29.9411 162.902 32.9559 165.241 36.833L168.666 34.767C165.938 30.2441 162.161 26.7255 157.379 24.2273L155.527 27.7727ZM165.241 36.833C167.57 40.6942 168.753 45.0978 168.753 50.1H172.753C172.753 44.4355 171.403 39.3058 168.666 34.767L165.241 36.833ZM168.753 50.1C168.753 55.1022 167.57 59.5058 165.241 63.367L168.666 65.433C171.403 60.8942 172.753 55.7645 172.753 50.1H168.753ZM165.241 63.367C162.899 67.2491 159.668 70.302 155.507 72.5382L157.4 76.0618C162.171 73.498 165.941 69.9509 168.666 65.433L165.241 63.367ZM155.527 72.5273C151.38 74.6936 146.638 75.8 141.253 75.8V79.8C147.202 79.8 152.593 78.5731 157.379 76.0727L155.527 72.5273ZM141.253 67C145.748 67 149.557 65.4787 152.503 62.3775L149.603 59.6225C147.483 61.8546 144.758 63 141.253 63V67ZM152.502 62.3784C155.525 59.2007 156.953 55.0366 156.953 50.1H152.953C152.953 54.2301 151.781 57.3327 149.604 59.6216L152.502 62.3784ZM156.953 50.1C156.953 45.1653 155.525 41.022 152.485 37.9038L149.621 40.6962C151.781 42.9113 152.953 45.9681 152.953 50.1H156.953ZM152.52 37.9405C149.578 34.7664 145.764 33.2 141.253 33.2V37.2C144.742 37.2 147.461 38.3669 149.586 40.6595L152.52 37.9405ZM141.253 33.2C136.742 33.2 132.906 34.7653 129.904 37.9216L132.802 40.6784C135 38.368 137.764 37.2 141.253 37.2V33.2ZM129.921 37.9038C126.881 41.022 125.453 45.1653 125.453 50.1H129.453C129.453 45.9681 130.625 42.9113 132.785 40.6962L129.921 37.9038ZM125.453 50.1C125.453 55.0366 126.881 59.2007 129.904 62.3784L132.802 59.6216C130.625 57.3327 129.453 54.2301 129.453 50.1H125.453ZM129.921 62.3962C132.927 65.4796 136.758 67 141.253 67V63C137.748 63 134.979 61.8538 132.785 59.6038L129.921 62.3962ZM235.98 2.8H237.98V0.799995H235.98V2.8ZM235.98 77V79H237.98V77H235.98ZM221.08 77H219.08V79H221.08V77ZM221.08 70.8H223.08V65.2515L219.54 69.524L221.08 70.8ZM190.48 74.4L189.507 76.147L189.519 76.1536L190.48 74.4ZM180.88 64.7L182.629 63.7287L180.88 64.7ZM180.88 35.5L182.629 36.4713L180.88 35.5ZM190.48 25.8L189.519 24.0463L189.507 24.053L190.48 25.8ZM220.38 28.9L218.888 30.2316L222.38 34.1453V28.9H220.38ZM220.38 2.8V0.799995H218.38V2.8H220.38ZM216.78 61L218.212 62.3962L218.221 62.3874L218.23 62.3784L216.78 61ZM216.78 39.3L215.331 40.6784L215.34 40.6874L215.348 40.6962L216.78 39.3ZM197.08 39.3L198.512 40.6962L198.521 40.6874L198.53 40.6784L197.08 39.3ZM197.08 61L195.631 62.3784L195.64 62.3874L195.648 62.3962L197.08 61ZM233.98 2.8V77H237.98V2.8H233.98ZM235.98 75H221.08V79H235.98V75ZM223.08 77V70.8H219.08V77H223.08ZM219.54 69.524C216.134 73.6356 211.156 75.8 204.28 75.8V79.8C212.072 79.8 218.294 77.2977 222.621 72.076L219.54 69.524ZM204.28 75.8C199.524 75.8 195.259 74.7394 191.442 72.6464L189.519 76.1536C193.969 78.5939 198.904 79.8 204.28 79.8V75.8ZM191.454 72.653C187.724 70.5738 184.787 67.614 182.629 63.7287L179.132 65.6713C181.64 70.186 185.104 73.6929 189.507 76.147L191.454 72.653ZM182.629 63.7287C180.484 59.8683 179.38 55.3455 179.38 50.1H175.38C175.38 55.9211 176.61 61.1317 179.132 65.6713L182.629 63.7287ZM179.38 50.1C179.38 44.8545 180.484 40.3317 182.629 36.4713L179.132 34.5287C176.61 39.0683 175.38 44.2789 175.38 50.1H179.38ZM182.629 36.4713C184.787 32.586 187.724 29.6262 191.454 27.547L189.507 24.053C185.104 26.5071 181.64 30.014 179.132 34.5287L182.629 36.4713ZM191.442 27.5536C195.259 25.4606 199.524 24.4 204.28 24.4V20.4C198.904 20.4 193.969 21.6061 189.519 24.0464L191.442 27.5536ZM204.28 24.4C210.691 24.4 215.471 26.4016 218.888 30.2316L221.873 27.5684C217.557 22.7317 211.603 20.4 204.28 20.4V24.4ZM222.38 28.9V2.8H218.38V28.9H222.38ZM220.38 4.8H235.98V0.799995H220.38V4.8ZM206.98 67C211.419 67 215.213 65.4725 218.212 62.3962L215.348 59.6038C213.148 61.8609 210.408 63 206.98 63V67ZM218.23 62.3784C221.252 59.2007 222.68 55.0366 222.68 50.1H218.68C218.68 54.2301 217.509 57.3327 215.331 59.6216L218.23 62.3784ZM222.68 50.1C222.68 45.1653 221.253 41.022 218.212 37.9038L215.348 40.6962C217.508 42.9113 218.68 45.9681 218.68 50.1H222.68ZM218.23 37.9216C215.234 34.7727 211.435 33.2 206.98 33.2V37.2C210.392 37.2 213.127 38.3606 215.331 40.6784L218.23 37.9216ZM206.98 33.2C202.47 33.2 198.634 34.7653 195.631 37.9216L198.53 40.6784C200.727 38.368 203.491 37.2 206.98 37.2V33.2ZM195.648 37.9038C192.608 41.022 191.18 45.1653 191.18 50.1H195.18C195.18 45.9681 196.353 42.9113 198.512 40.6962L195.648 37.9038ZM191.18 50.1C191.18 55.0366 192.609 59.2007 195.631 62.3784L198.53 59.6216C196.352 57.3327 195.18 54.2301 195.18 50.1H191.18ZM195.648 62.3962C198.655 65.4796 202.486 67 206.98 67V63C203.475 63 200.706 61.8538 198.512 59.6038L195.648 62.3962ZM304.619 23.2H306.619V21.2H304.619V23.2ZM304.619 77V79H306.619V77H304.619ZM289.819 77H287.819V79H289.819V77ZM289.819 70.6H291.819V65.3255L288.322 69.2739L289.819 70.6ZM282.419 76L283.191 77.8449L283.209 77.8373L283.227 77.8294L282.419 76ZM256.319 71.7L257.721 70.2743L256.319 71.7ZM250.119 23.2V21.2H248.119V23.2H250.119ZM265.719 23.2H267.719V21.2H265.719V23.2ZM285.619 60.7L287.073 62.0732L287.082 62.0633L287.091 62.0533L285.619 60.7ZM289.019 23.2V21.2H287.019V23.2H289.019ZM302.619 23.2V77H306.619V23.2H302.619ZM304.619 75H289.819V79H304.619V75ZM291.819 77V70.6H287.819V77H291.819ZM288.322 69.2739C286.447 71.3907 284.215 73.0196 281.61 74.1706L283.227 77.8294C286.355 76.4471 289.057 74.476 291.316 71.9261L288.322 69.2739ZM281.646 74.1551C279.042 75.2455 276.206 75.8 273.119 75.8V79.8C276.698 79.8 280.062 79.1545 283.191 77.8449L281.646 74.1551ZM273.119 75.8C266.455 75.8 261.402 73.8955 257.721 70.2743L254.916 73.1257C259.502 77.6379 265.649 79.8 273.119 79.8V75.8ZM257.721 70.2743C254.097 66.7081 252.119 61.2721 252.119 53.6H248.119C248.119 61.9279 250.274 68.5586 254.916 73.1257L257.721 70.2743ZM252.119 53.6V23.2H248.119V53.6H252.119ZM250.119 25.2H265.719V21.2H250.119V25.2ZM263.719 23.2V51.3H267.719V23.2H263.719ZM263.719 51.3C263.719 55.8641 264.668 59.6598 266.911 62.335C269.211 65.0777 272.576 66.3 276.619 66.3V62.3C273.395 62.3 271.31 61.3556 269.976 59.765C268.586 58.1069 267.719 55.4025 267.719 51.3H263.719ZM276.619 66.3C280.823 66.3 284.377 64.9275 287.073 62.0732L284.165 59.3268C282.327 61.2725 279.881 62.3 276.619 62.3V66.3ZM287.091 62.0533C289.819 59.0847 291.019 54.8857 291.019 49.8H287.019C287.019 54.3143 285.952 57.382 284.146 59.3467L287.091 62.0533ZM291.019 49.8V23.2H287.019V49.8H291.019ZM289.019 25.2H304.619V21.2H289.019V25.2ZM329.571 74.3L328.635 76.0676L328.651 76.0758L328.666 76.0837L329.571 74.3ZM318.871 64.4L317.159 65.433L317.164 65.4429L317.171 65.4527L318.871 64.4ZM318.871 35.8L317.171 34.7473L317.164 34.7571L317.159 34.767L318.871 35.8ZM329.571 26L330.486 27.7783L330.496 27.7732L329.571 26ZM359.871 26L358.879 27.7365L358.895 27.7458L358.911 27.7547L359.871 26ZM369.171 36.1L370.118 37.8619L371.746 36.9873L371.002 35.2955L369.171 36.1ZM357.071 42.6L355.332 43.5872L356.296 45.2866L358.018 44.3619L357.071 42.6ZM334.871 39.2L333.457 37.7858L334.871 39.2ZM357.071 57.6L358.029 55.8442L356.285 54.8928L355.322 56.6307L357.071 57.6ZM369.171 64.2L370.993 65.0255L371.759 63.3336L370.129 62.4442L369.171 64.2ZM359.871 74.2L358.891 72.4568L358.879 72.4635L359.871 74.2ZM345.071 75.8C339.617 75.8 334.765 74.6922 330.476 72.5163L328.666 76.0837C333.577 78.5745 339.059 79.8 345.071 79.8V75.8ZM330.507 72.5324C326.275 70.2919 322.977 67.2334 320.572 63.3473L317.171 65.4527C319.965 69.9666 323.801 73.5081 328.635 76.0676L330.507 72.5324ZM320.584 63.367C318.255 59.5058 317.071 55.1022 317.071 50.1H313.071C313.071 55.7645 314.421 60.8942 317.159 65.433L320.584 63.367ZM317.071 50.1C317.071 45.0978 318.255 40.6942 320.584 36.833L317.159 34.767C314.421 39.3058 313.071 44.4355 313.071 50.1H317.071ZM320.572 36.8527C322.974 32.9716 326.265 29.9511 330.486 27.7783L328.656 24.2217C323.811 26.7156 319.968 30.2284 317.171 34.7473L320.572 36.8527ZM330.496 27.7732C334.782 25.5373 339.625 24.4 345.071 24.4V20.4C339.05 20.4 333.561 21.6627 328.646 24.2268L330.496 27.7732ZM345.071 24.4C350.45 24.4 355.029 25.5367 358.879 27.7365L360.863 24.2635C356.313 21.6633 351.026 20.4 345.071 20.4V24.4ZM358.911 27.7547C362.796 29.8789 365.587 32.9139 367.34 36.9045L371.002 35.2955C368.889 30.486 365.48 26.7877 360.831 24.2453L358.911 27.7547ZM368.225 34.3381L356.125 40.8381L358.018 44.3619L370.118 37.8619L368.225 34.3381ZM358.81 41.6128C355.689 36.1125 351.023 33.2 344.971 33.2V37.2C349.453 37.2 352.854 39.2208 355.332 43.5872L358.81 41.6128ZM344.971 33.2C340.42 33.2 336.53 34.7128 333.457 37.7858L336.285 40.6142C338.546 38.3539 341.389 37.2 344.971 37.2V33.2ZM333.457 37.7858C330.336 40.907 328.871 45.0937 328.871 50.1H332.871C332.871 45.9063 334.073 42.8263 336.285 40.6142L333.457 37.7858ZM328.871 50.1C328.871 55.1063 330.336 59.293 333.457 62.4142L336.285 59.5858C334.073 57.3737 332.871 54.2937 332.871 50.1H328.871ZM333.457 62.4142C336.53 65.4872 340.42 67 344.971 67V63C341.389 63 338.546 61.8461 336.285 59.5858L333.457 62.4142ZM344.971 67C347.958 67 350.67 66.3054 353.04 64.8562C355.404 63.4105 357.319 61.2801 358.821 58.5693L355.322 56.6307C354.09 58.8533 352.622 60.4228 350.953 61.4438C349.289 62.4612 347.318 63 344.971 63V67ZM356.113 59.3558L368.213 65.9558L370.129 62.4442L358.029 55.8442L356.113 59.3558ZM367.349 63.3745C365.6 67.2354 362.804 70.2554 358.891 72.4568L360.852 75.9432C365.471 73.3446 368.876 69.698 370.993 65.0255L367.349 63.3745ZM358.879 72.4635C355.029 74.6633 350.45 75.8 345.071 75.8V79.8C351.026 79.8 356.313 78.5367 360.863 75.9365L358.879 72.4635ZM413.634 74.4L414.823 76.0084L416.045 75.1056L415.503 73.6866L413.634 74.4ZM407.934 77L408.406 78.9437L408.426 78.9388L408.446 78.9334L407.934 77ZM386.034 72.9L384.663 74.3556L384.67 74.3621L384.677 74.3685L386.034 72.9ZM380.834 36.4H382.834V34.4H380.834V36.4ZM372.534 36.4H370.534V38.4H372.534V36.4ZM372.534 24.4V22.4H370.534V24.4H372.534ZM380.834 24.4V26.4H382.834V24.4H380.834ZM380.834 11.3V9.3H378.834V11.3H380.834ZM396.434 11.3H398.434V9.3H396.434V11.3ZM396.434 24.4H394.434V26.4H396.434V24.4ZM409.834 24.4H411.834V22.4H409.834V24.4ZM409.834 36.4V38.4H411.834V36.4H409.834ZM396.434 36.4V34.4H394.434V36.4H396.434ZM398.134 63.6L396.644 64.9336L396.681 64.975L396.72 65.0142L398.134 63.6ZM409.434 63.4L411.303 62.6866L410.344 60.1767L408.215 61.8148L409.434 63.4ZM412.446 72.7916C411.156 73.7447 409.499 74.5168 407.423 75.0666L408.446 78.9334C410.903 78.2832 413.046 77.322 414.823 76.0084L412.446 72.7916ZM407.463 75.0563C405.431 75.5491 403.256 75.8 400.934 75.8V79.8C403.546 79.8 406.038 79.5176 408.406 78.9437L407.463 75.0563ZM400.934 75.8C394.868 75.8 390.448 74.2564 387.392 71.4315L384.677 74.3685C388.688 78.0769 394.201 79.8 400.934 79.8V75.8ZM387.406 71.4444C384.46 68.6685 382.834 64.4719 382.834 58.5H378.834C378.834 65.1948 380.675 70.5981 384.663 74.3556L387.406 71.4444ZM382.834 58.5V36.4H378.834V58.5H382.834ZM380.834 34.4H372.534V38.4H380.834V34.4ZM374.534 36.4V24.4H370.534V36.4H374.534ZM372.534 26.4H380.834V22.4H372.534V26.4ZM382.834 24.4V11.3H378.834V24.4H382.834ZM380.834 13.3H396.434V9.3H380.834V13.3ZM394.434 11.3V24.4H398.434V11.3H394.434ZM396.434 26.4H409.834V22.4H396.434V26.4ZM407.834 24.4V36.4H411.834V24.4H407.834ZM409.834 34.4H396.434V38.4H409.834V34.4ZM394.434 36.4V58.3H398.434V36.4H394.434ZM394.434 58.3C394.434 60.8919 395.086 63.1925 396.644 64.9336L399.625 62.2664C398.916 61.4742 398.434 60.2414 398.434 58.3H394.434ZM396.72 65.0142C398.386 66.68 400.614 67.4 403.134 67.4V63.4C401.388 63.4 400.283 62.92 399.549 62.1858L396.72 65.0142ZM403.134 67.4C405.983 67.4 408.527 66.6216 410.654 64.9852L408.215 61.8148C406.876 62.8451 405.219 63.4 403.134 63.4V67.4ZM407.566 64.1134L411.766 75.1134L415.503 73.6866L411.303 62.6866L407.566 64.1134Z" fill="#282A30" mask="url(#path-1-outside-1_28_0)"/>
</svg>
